<svg xmlns="http://www.w3.org/2000/svg" viewBox="0 0 512 512">
  <title>Keegan Digital Logo</title>
  <g class="foreground-elements" fill="var(--color-foreground)">
    <circle cx="256" cy="256" r="256"/>
  </g>
  <g class="background-elements" fill="var(--color-background)">
    <path d="M481 256l-30-30v-83L256 31 61 143v83l-30 30 30 30v83l195 112 195-112v-83l30-30zm-14.1 0L451 271.9v-31.7l15.9 15.8zm-103 103H148.1l-44.3-44.3L256 51l152.1 263.7-44.2 44.3zm49.4-35.3l20.4 35.3H378l35.3-35.3zM158.1 369h195.7L256 466.9 158.1 369zM134 359H78.3l20.4-35.3L134 359zm-37.5-51.6L71 281.9v-51.7L236.7 64.4l-140.2 243zm178.8-243L441 230.1v51.7l-25.5 25.5L275.3 64.4zM441 148.8V216L283.1 58.1 441 148.8zm-370 0l157.9-90.7L71 216v-67.2zM45.1 256L61 240.1v31.7L45.1 256zM71 296l20.4 20.4L71 351.7V296zm10.1 73H144l84.9 84.9L81.1 369zm202 84.9L368 369h62.9l-147.8 84.9zM441 351.7l-20.4-35.3L441 296v55.7z"/>
  </g>
</svg>
