<svg xmlns="http://www.w3.org/2000/svg" viewBox="0 0 2660 512">
  <title>Keegan Digital Logo</title>
  <g class="foreground-elements" fill="var(--color-foreground)">
    <path d="M1741.334 332.83a70.156 70.156 0 01-35.625-9.125 66.609 66.609 0 01-25-25q-9.129-15.873-9.125-35.875t9.125-35.75a67.5 67.5 0 0124.75-24.875q15.621-9.123 35.375-9.125a66.242 66.242 0 0131.75 7.625 58.637 58.637 0 0122.25 20.125v-76.5a7.867 7.867 0 012.375-6 8.208 8.208 0 015.875-2.25 7.693 7.693 0 015.875 2.25 8.392 8.392 0 012.125 6v119.75a69.472 69.472 0 01-9.5 35.125 67.8 67.8 0 01-24.875 24.625q-15.627 9-35.375 9zm.25-15.25a53.027 53.027 0 0027.375-7.125 51.789 51.789 0 0019.125-19.5 59.5 59.5 0 000-56 51.789 51.789 0 00-19.125-19.5 53.766 53.766 0 00-74 19.5 58.334 58.334 0 000 55.875 53.934 53.934 0 0019.25 19.5 52.275 52.275 0 0027.375 7.25z"/>
    <path d="M1898.832 166.58a12.379 12.379 0 01-12.25-12.25q0-6 3.75-9.125a13.122 13.122 0 0117 0q3.75 3.129 3.75 9.125a12.379 12.379 0 01-12.25 12.25zm.25 164.75a7.743 7.743 0 01-8.25-8.25V202.83a7.743 7.743 0 018.25-8.25 7.789 7.789 0 015.75 2.25 8.109 8.109 0 012.25 6v120.25a8.109 8.109 0 01-2.25 6 7.789 7.789 0 01-5.75 2.25z"/>
    <path d="M2048.58 332.83q-20.25 0-35.875-9a64.691 64.691 0 01-24.5-24.75q-8.877-15.75-8.875-36 0-20.5 9.25-36.25a67.191 67.191 0 0125-24.75q15.75-9 35.75-9 20.25 0 35.875 9a65.646 65.646 0 0124.625 24.75q9 15.75 9 36.25l-9.5 8.75q0 17.754-7.75 31.625a55.546 55.546 0 01-21.375 21.625q-13.629 7.752-31.625 7.75zm1.5 51.25q-20.5 0-35.25-7.625a72.05 72.05 0 01-24.25-19.875 7.539 7.539 0 01-2.125-5.5 6.322 6.322 0 012.875-5 8.225 8.225 0 016.25-1.5 7.659 7.659 0 015.5 3.5 59.993 59.993 0 0019.375 15q11.871 6 27.625 6a50.385 50.385 0 0027-7.25 52.7 52.7 0 0018.75-20.125 60.006 60.006 0 007-29.125v-39.25l6.75-11 9.25.75v49.5q0 20.25-9 36.5a67.705 67.705 0 01-24.5 25.625q-15.504 9.375-35.25 9.375zm-.75-66.5a54.239 54.239 0 0027.625-7 50.2 50.2 0 0019-19.25q6.873-12.246 6.875-28.25t-6.875-28.375a49.991 49.991 0 00-19-19.375 54.279 54.279 0 00-27.625-7q-15.75 0-27.875 7a49.936 49.936 0 00-19 19.375q-6.879 12.375-6.875 28.375t6.875 28.25a50.14 50.14 0 0019 19.25q12.123 7.002 27.875 7z"/>
    <path d="M2199.078 166.58a12.379 12.379 0 01-12.25-12.25q0-6 3.75-9.125a13.122 13.122 0 0117 0q3.75 3.129 3.75 9.125a12.379 12.379 0 01-12.25 12.25zm.25 164.75a7.743 7.743 0 01-8.25-8.25V202.83a7.743 7.743 0 018.25-8.25 7.789 7.789 0 015.75 2.25 8.109 8.109 0 012.25 6v120.25a8.109 8.109 0 01-2.25 6 7.789 7.789 0 01-5.75 2.25z"/>
    <path d="M2276.826 214.08a7.255 7.255 0 01-7.25-7.25 6.879 6.879 0 012.125-5.25 7.211 7.211 0 015.125-2h66.75a7.218 7.218 0 015.125 2 6.893 6.893 0 012.125 5.25 7.255 7.255 0 01-7.25 7.25zm65.5 117.25a49.968 49.968 0 01-24.25-6.375 43.217 43.217 0 01-16.75-17 50.113 50.113 0 01-6-24.625v-124a8.221 8.221 0 012.25-5.875 8.766 8.766 0 0112 0 8.221 8.221 0 012.25 5.875v124q0 13.752 8.625 22.625t22.125 8.875h5.75a7.881 7.881 0 016 2.375 8.221 8.221 0 012.25 5.875 7.881 7.881 0 01-2.375 6 8.9 8.9 0 01-6.375 2.25z"/>
    <path d="M2479.576 332.83q-19.752 0-35.375-9.125a67.173 67.173 0 01-24.75-25 70.156 70.156 0 01-9.125-35.625q0-20 9.125-35.875a66.666 66.666 0 0125-25q15.873-9.123 35.875-9.125 19.746 0 35.5 9.125a66.987 66.987 0 0124.875 25q9.123 15.879 9.125 35.875l-6.5 8.75a59.064 59.064 0 01-8.375 31.125 60.4 60.4 0 01-22.75 21.875q-14.379 8.004-32.625 8zm.75-15.25a53.027 53.027 0 0027.375-7.125 51.789 51.789 0 0019.125-19.5 59.25 59.25 0 000-55.875 53.052 53.052 0 00-19.125-19.5 52.333 52.333 0 00-27.375-7.25 53.2 53.2 0 00-27.25 7.125 52.41 52.41 0 00-19.375 19.5 58.579 58.579 0 000 56 52.458 52.458 0 0046.625 26.625zm61.5 13.75a8.109 8.109 0 01-6-2.25 7.782 7.782 0 01-2.25-5.75v-45l4.75-16.5 11.5 1.25v60.25a8.044 8.044 0 01-2.125 5.75 7.693 7.693 0 01-5.875 2.25z"/>
    <path d="M2645.324 331.33a28.44 28.44 0 01-17-5.375 35.9 35.9 0 01-11.75-14.75 51.842 51.842 0 01-4.25-21.625v-145.5a7.7 7.7 0 018-8 8.109 8.109 0 016 2.25 7.789 7.789 0 012.25 5.75v145.5q0 11.25 4.75 18.375t12 7.125h6.25a6.32 6.32 0 015.125 2.25 9.072 9.072 0 011.875 6 7.574 7.574 0 01-2.375 5.75 8.9 8.9 0 01-6.375 2.25z"/>
    <path d="M9.144 331.329a7.7 7.7 0 01-8-8v-179.25a7.7 7.7 0 018-8 8.109 8.109 0 016 2.25 7.789 7.789 0 012.25 5.75v179.25a7.782 7.782 0 01-2.25 5.75 8.109 8.109 0 01-6 2.25zm3.75-43.75l-9.75-10.75 89.5-81.5a7 7 0 0110.5.5 8.706 8.706 0 012.25 5.5 6.441 6.441 0 01-2.75 5zm90.5 42.5a6.936 6.936 0 01-5.625 2.125 7.912 7.912 0 01-5.125-3.125l-58.25-71.25 11.75-9.75 58.25 71.5a6.8 6.8 0 012 5.25 8.2 8.2 0 01-3 5.25z"/>
    <path d="M215.393 332.579q-20 0-35.375-8.875a64.307 64.307 0 01-24.25-24.625q-8.877-15.75-8.875-36 0-20.5 8.375-36.125a63.9 63.9 0 0122.875-24.625q14.5-9 33.5-9 18.5 0 32.75 8.625a59.957 59.957 0 0122.25 23.75q8 15.129 8 34.875a6.975 6.975 0 01-2.25 5.5 8.322 8.322 0 01-5.75 2h-108.75v-14h112.25l-11 8.25q.5-15.75-5.375-28a45.508 45.508 0 00-16.625-19.129q-10.752-6.873-25.5-6.875a46.032 46.032 0 00-25.25 7 48.094 48.094 0 00-17.25 19.375q-6.252 12.375-6.25 28.375t6.75 28.25a50.064 50.064 0 0018.5 19.25q11.748 7 27.25 7a59.469 59.469 0 0019.125-3.25q9.621-3.246 15.375-8.5a7.684 7.684 0 015.25-2.375 7.188 7.188 0 015.25 1.875 7.058 7.058 0 012.875 5.25 7.2 7.2 0 01-2.375 5.5q-8 7-20.875 11.75a71.085 71.085 0 01-24.625 4.754z"/>
    <path d="M380.642 332.579q-20 0-35.375-8.875a64.307 64.307 0 01-24.25-24.625q-8.877-15.75-8.875-36 0-20.5 8.375-36.125a63.9 63.9 0 0122.875-24.625q14.5-9 33.5-9 18.5 0 32.75 8.625a59.957 59.957 0 0122.25 23.75q8 15.129 8 34.875a6.975 6.975 0 01-2.25 5.5 8.322 8.322 0 01-5.75 2h-108.75v-14h112.25l-11 8.25q.5-15.75-5.375-28a45.508 45.508 0 00-16.625-19.129q-10.752-6.873-25.5-6.875a46.032 46.032 0 00-25.25 7 48.094 48.094 0 00-17.25 19.375q-6.252 12.375-6.25 28.375t6.75 28.25a50.064 50.064 0 0018.5 19.25q11.748 7 27.25 7a59.469 59.469 0 0019.125-3.25q9.621-3.246 15.375-8.5a7.684 7.684 0 015.25-2.375 7.188 7.188 0 015.25 1.875 7.058 7.058 0 012.875 5.25 7.2 7.2 0 01-2.375 5.5q-8 7-20.875 11.75a71.085 71.085 0 01-24.625 4.754z"/>
    <path d="M546.64 332.829q-20.25 0-35.875-9a64.691 64.691 0 01-24.5-24.75q-8.877-15.75-8.875-36 0-20.5 9.25-36.25a67.191 67.191 0 0125-24.75q15.75-9 35.75-9 20.25 0 35.875 9a65.646 65.646 0 0124.625 24.75q9 15.75 9 36.25l-9.5 8.75q0 17.754-7.75 31.625a55.546 55.546 0 01-21.375 21.625q-13.629 7.752-31.625 7.75zm1.5 51.25q-20.5 0-35.25-7.625a72.05 72.05 0 01-24.25-19.875 7.539 7.539 0 01-2.125-5.5 6.322 6.322 0 012.875-5 8.225 8.225 0 016.25-1.5 7.659 7.659 0 015.5 3.5 59.993 59.993 0 0019.375 15q11.871 6 27.625 6a50.385 50.385 0 0027-7.25 52.7 52.7 0 0018.75-20.129 60.006 60.006 0 007-29.125v-39.25l6.75-11 9.25.75v49.5q0 20.25-9 36.5a67.705 67.705 0 01-24.5 25.625q-15.504 9.379-35.25 9.379zm-.75-66.5a54.239 54.239 0 0027.625-7 50.2 50.2 0 0019-19.25q6.873-12.246 6.875-28.25t-6.875-28.379a49.991 49.991 0 00-19-19.375 54.279 54.279 0 00-27.625-7q-15.75 0-27.875 7a49.936 49.936 0 00-19 19.375q-6.879 12.375-6.875 28.375t6.875 28.25a50.14 50.14 0 0019 19.25q12.123 7.006 27.875 7.004z"/>
    <path d="M728.638 332.829q-19.752 0-35.375-9.125a67.173 67.173 0 01-24.75-25 70.156 70.156 0 01-9.125-35.625q0-20 9.125-35.875a66.666 66.666 0 0125-25q15.873-9.123 35.875-9.125 19.746 0 35.5 9.125a66.987 66.987 0 0124.875 25q9.123 15.879 9.125 35.875l-6.5 8.75a59.064 59.064 0 01-8.375 31.125 60.4 60.4 0 01-22.75 21.875q-14.379 8.004-32.625 8zm.75-15.25a53.027 53.027 0 0027.375-7.125 51.789 51.789 0 0019.125-19.5 59.25 59.25 0 000-55.875 53.052 53.052 0 00-19.125-19.5 52.333 52.333 0 00-27.375-7.25 53.2 53.2 0 00-27.25 7.125 52.41 52.41 0 00-19.375 19.5 58.579 58.579 0 000 56 52.458 52.458 0 0046.625 26.625zm61.5 13.75a8.109 8.109 0 01-6-2.25 7.782 7.782 0 01-2.25-5.75v-45l4.75-16.5 11.5 1.25v60.25a8.044 8.044 0 01-2.125 5.75 7.693 7.693 0 01-5.875 2.25z"/>
    <path d="M857.136 331.329a8.109 8.109 0 01-6-2.25 7.782 7.782 0 01-2.25-5.75v-120.5a7.743 7.743 0 018.25-8.25 7.693 7.693 0 015.875 2.25 8.392 8.392 0 012.125 6v120.5a8.044 8.044 0 01-2.125 5.75 7.693 7.693 0 01-5.875 2.25zm109.75 0a7.963 7.963 0 01-5.875-2.375 7.674 7.674 0 01-2.375-5.625v-66.75q0-16.248-6.25-26.75a39.911 39.911 0 00-16.875-15.75 57.892 57.892 0 00-47.625-.25 41.7 41.7 0 00-16.625 13.75 34.007 34.007 0 00-6.125 20h-12.75a55.01 55.01 0 018.875-28.125 57.958 57.958 0 0121.375-19.5 61.272 61.272 0 0129.5-7.125q18 0 32.125 7.375a54.785 54.785 0 0122.375 21.625q8.25 14.25 8.25 34.75v66.75a7.9 7.9 0 01-2.25 5.625 7.565 7.565 0 01-5.75 2.375z"/>
    <circle cx="1330" cy="256" r="256"/>
  </g>
  <g class="background-elements" fill="var(--color-background)">
    <path d="M1555 256l-30-30v-83L1330 31l-195 112v83l-30 30 30 30v83l195 112 195-112v-83zm-14.142 0L1525 271.858v-31.716zm-103 103h-215.716l-44.281-44.281L1330 51.011l152.139 263.708zm49.455-35.313L1507.686 359H1452zM1232.142 369h195.716L1330 466.858zM1208 359h-55.686l20.373-35.313zm-37.46-51.6L1145 281.858v-51.716l165.715-165.715zm178.745-242.973L1515 230.142v51.716l-25.54 25.54zM1515 148.789V216L1357.094 58.094zm-370 0l157.906-90.695L1145 216zM1119.142 256L1135 240.142v31.716zM1145 296l20.366 20.366L1145 351.667zm10.078 73H1218l84.906 84.906zm202.016 84.906L1442 369h62.922zM1515 351.667l-20.366-35.3L1515 296z"/>
  </g>
</svg>
