<svg xmlns="http://www.w3.org/2000/svg" viewBox="0 0 2904.577 512">
  <title>Keegan Digital Logo</title>
  <g class="foreground-elements" fill="var(--color-foreground)">
    <path d="M1965.89 371.279q-23.7 0-42.75-10.949a79.935 79.935 0 01-30-30q-10.956-19.049-10.951-43.051t10.951-42.9a80.992 80.992 0 0129.7-29.85q18.744-10.947 42.449-10.95a79.49 79.49 0 0138.1 9.15 70.364 70.364 0 0126.7 24.15v-91.8a9.44 9.44 0 012.849-7.2 9.853 9.853 0 017.05-2.7 9.231 9.231 0 017.05 2.7 10.07 10.07 0 012.551 7.2v143.7q-.3 23.4-11.4 42.151a81.367 81.367 0 01-29.849 29.55q-18.753 10.8-42.45 10.799zm.3-18.3a63.62 63.62 0 0032.85-8.55 62.133 62.133 0 0022.95-23.4q8.4-14.847 8.4-33.75a66.773 66.773 0 00-8.4-33.449 62.138 62.138 0 00-22.95-23.4 64.521 64.521 0 00-88.8 23.4 65.819 65.819 0 00-8.55 33.449q0 18.9 8.55 33.6a64.713 64.713 0 0023.1 23.4 62.711 62.711 0 0032.849 8.701z"/>
    <path d="M2127.887 171.78a14.853 14.853 0 01-14.7-14.7q0-7.2 4.5-10.95a15.746 15.746 0 0120.4 0q4.5 3.755 4.5 10.95a14.855 14.855 0 01-14.7 14.7zm.3 197.7a9.293 9.293 0 01-9.9-9.9v-144.3a9.291 9.291 0 019.9-9.9 9.346 9.346 0 016.9 2.7 9.731 9.731 0 012.7 7.2v144.3a9.727 9.727 0 01-2.7 7.2 9.343 9.343 0 01-6.899 2.7z"/>
    <path d="M2354.084 244.08a78.774 78.774 0 00-29.55-29.7q-18.753-10.8-43.05-10.8-24.006 0-42.9 10.8a80.623 80.623 0 00-30 29.7q-11.1 18.9-11.1 43.5 0 24.3 10.65 43.2a77.617 77.617 0 0029.4 29.7q18.745 10.8 43.05 10.8 21.6 0 37.95-9.3a66.644 66.644 0 0025.65-25.951 71.225 71.225 0 001.5-2.858v13.809q0 19.5-8.4 34.95a63.226 63.226 0 01-22.5 24.15q-14.1 8.7-32.4 8.7-18.9 0-33.15-7.2a72.014 72.014 0 01-23.25-18 9.187 9.187 0 00-6.6-4.2 9.862 9.862 0 00-7.5 1.8 7.585 7.585 0 00-3.45 6 9.044 9.044 0 002.55 6.6 86.471 86.471 0 0029.1 23.852q17.7 9.147 42.3 9.148 23.7 0 42.3-11.25a81.238 81.238 0 0029.4-30.75q10.8-19.5 10.8-43.8v-59.4q0-24.594-10.8-43.5zm-16.65 77.4a60.248 60.248 0 01-22.8 23.1q-14.555 8.4-33.15 8.4-18.9 0-33.45-8.4a60.179 60.179 0 01-22.8-23.1q-8.256-14.694-8.25-33.9t8.25-34.05a59.918 59.918 0 0122.8-23.25q14.547-8.4 33.45-8.4 18.6 0 33.15 8.4a59.986 59.986 0 0122.8 23.25q8.248 14.85 8.25 34.05t-8.25 33.9z"/>
    <path d="M2434.183 171.78a14.855 14.855 0 01-14.7-14.7q0-7.2 4.5-10.95a15.748 15.748 0 0120.4 0q4.5 3.755 4.5 10.95a14.856 14.856 0 01-14.7 14.7zm.3 197.7a9.293 9.293 0 01-9.9-9.9v-144.3a9.291 9.291 0 019.9-9.9 9.349 9.349 0 016.9 2.7 9.73 9.73 0 012.7 7.2v144.3a9.726 9.726 0 01-2.7 7.2 9.346 9.346 0 01-6.901 2.7z"/>
    <path d="M2593.479 352.529a9.458 9.458 0 00-7.2-2.849h-6.9q-16.2 0-26.55-10.651t-10.35-27.148v-83.1h38.1a8.706 8.706 0 008.7-8.7 8.27 8.27 0 00-2.55-6.3 8.66 8.66 0 00-6.15-2.4h-38.1v-48.3a9.866 9.866 0 00-2.7-7.05 10.52 10.52 0 00-14.4 0 9.866 9.866 0 00-2.7 7.05v48.3h-22.2a8.649 8.649 0 00-6.15 2.4 8.252 8.252 0 00-2.55 6.3 8.706 8.706 0 008.7 8.7h22.2v83.1a60.137 60.137 0 007.2 29.549 51.849 51.849 0 0020.1 20.4 59.978 59.978 0 0029.1 7.65h6.6a10.672 10.672 0 007.65-2.7 9.452 9.452 0 002.85-7.2 9.87 9.87 0 00-2.7-7.051z"/>
    <path d="M2790.129 244.53a80.385 80.385 0 00-29.85-30q-18.9-10.947-42.6-10.95-24 0-43.05 10.95a80.006 80.006 0 00-30 30q-10.954 19.053-10.95 43.05 0 23.7 10.95 42.75a80.615 80.615 0 0029.7 30q18.745 10.954 42.45 10.949 21.9 0 39.15-9.6a72.45 72.45 0 0025.65-23.7v21.906a9.333 9.333 0 002.7 6.9 9.728 9.728 0 007.2 2.7 9.229 9.229 0 007.05-2.7 9.646 9.646 0 002.55-6.9v-72.3q0-24.002-10.95-43.055zm-39.6 99.9a64.518 64.518 0 01-88.8-23.4 65.8 65.8 0 01-8.55-33.449q0-18.9 8.55-33.75a62.9 62.9 0 0123.25-23.4 63.837 63.837 0 0132.7-8.55 62.8 62.8 0 0132.85 8.7 63.658 63.658 0 0122.95 23.4q8.4 14.7 8.4 33.6a66.756 66.756 0 01-8.4 33.449 62.141 62.141 0 01-22.95 23.4z"/>
    <path d="M2888.678 369.48a34.118 34.118 0 01-20.4-6.451 43.063 43.063 0 01-14.1-17.7q-5.107-11.25-5.1-25.949v-174.6a9.243 9.243 0 019.6-9.6 9.729 9.729 0 017.2 2.7 9.343 9.343 0 012.7 6.9v174.6q0 13.5 5.7 22.049t14.4 8.55h7.5a7.587 7.587 0 016.149 2.7 10.889 10.889 0 012.25 7.2 9.084 9.084 0 01-2.85 6.9 10.674 10.674 0 01-7.65 2.7z"/>
    <path d="M123.9 355.379L59.289 276.07l62.511-56.591q3.3-2.7 3.3-6a10.45 10.45 0 00-2.7-6.6 8.4 8.4 0 00-12.6-.6l-90.3 82.228V144.779a9.347 9.347 0 00-2.7-6.9 9.731 9.731 0 00-7.2-2.7 9.243 9.243 0 00-9.6 9.6v215.1a9.243 9.243 0 009.6 9.6 9.735 9.735 0 007.2-2.7 9.339 9.339 0 002.7-6.9V312.09l26.2-23.718 64.1 78.407a9.494 9.494 0 006.15 3.75q3.445.448 6.75-2.55t3.6-6.3a8.164 8.164 0 00-2.4-6.3z"/>
    <path d="M315.6 242.729a71.946 71.946 0 00-26.7-28.5q-17.1-10.35-39.3-10.35-22.8 0-40.2 10.8a76.678 76.678 0 00-27.449 29.55Q171.9 262.982 171.9 287.578q0 24.3 10.651 43.2a77.159 77.159 0 0029.1 29.549q18.449 10.654 42.449 10.652a85.308 85.308 0 0029.549-5.7q15.448-5.7 25.051-14.1a8.651 8.651 0 002.85-6.6 8.473 8.473 0 00-3.45-6.3 8.621 8.621 0 00-6.3-2.25 9.219 9.219 0 00-6.3 2.85q-6.906 6.3-18.45 10.2a71.358 71.358 0 01-22.95 3.9q-18.606 0-32.7-8.4a60.072 60.072 0 01-22.2-23.1 66.675 66.675 0 01-7.887-27.9H315.6a10 10 0 006.9-2.4 8.374 8.374 0 002.7-6.6q0-23.696-9.6-41.85zm-117 10.8a57.711 57.711 0 0120.7-23.25q13.2-8.4 30.3-8.4 17.7 0 30.6 8.25a54.606 54.606 0 0119.949 22.95 67.134 67.134 0 016.209 23.7H191.741a69.822 69.822 0 016.859-23.25z"/>
    <path d="M510.9 242.729a71.936 71.936 0 00-26.7-28.5q-17.1-10.35-39.3-10.35-22.8 0-40.2 10.8a76.678 76.678 0 00-27.449 29.55q-10.056 18.753-10.051 43.349 0 24.3 10.651 43.2a77.152 77.152 0 0029.1 29.549q18.452 10.653 42.45 10.651a85.309 85.309 0 0029.55-5.7q15.448-5.7 25.051-14.1a8.651 8.651 0 002.85-6.6 8.471 8.471 0 00-3.451-6.3 8.617 8.617 0 00-6.3-2.25 9.223 9.223 0 00-6.3 2.85q-6.9 6.3-18.449 10.2a71.359 71.359 0 01-22.951 3.9q-18.6 0-32.7-8.4a60.058 60.058 0 01-22.2-23.1 66.675 66.675 0 01-7.887-27.9H510.9a9.992 9.992 0 006.9-2.4 8.371 8.371 0 002.7-6.6q0-23.695-9.6-41.849zm-117 10.8a57.714 57.714 0 0120.7-23.25q13.2-8.4 30.3-8.4 17.7 0 30.6 8.25a54.606 54.606 0 0119.949 22.95 67.155 67.155 0 016.209 23.7H387.039a69.845 69.845 0 016.861-23.25z"/>
    <path d="M716.1 244.079a78.774 78.774 0 00-29.55-29.7q-18.753-10.8-43.05-10.8-24 0-42.9 10.8a80.63 80.63 0 00-30 29.7q-11.1 18.9-11.1 43.5 0 24.3 10.65 43.2a77.628 77.628 0 0029.4 29.7q18.746 10.8 43.05 10.8 21.6 0 37.95-9.3a66.662 66.662 0 0025.65-25.95c.525-.94 1.02-1.9 1.5-2.858v13.808q0 19.5-8.4 34.951a63.25 63.25 0 01-22.5 24.148q-14.1 8.7-32.4 8.7-18.9 0-33.15-7.2a71.97 71.97 0 01-23.25-18 9.2 9.2 0 00-6.6-4.2 9.872 9.872 0 00-7.5 1.8 7.582 7.582 0 00-3.45 6 9.05 9.05 0 002.55 6.6 86.475 86.475 0 0029.1 23.85q17.7 9.147 42.3 9.15 23.7 0 42.3-11.25a81.245 81.245 0 0029.4-30.75q10.8-19.506 10.8-43.8v-59.4q0-24.594-10.8-43.499zm-16.65 77.4a60.218 60.218 0 01-22.8 23.1q-14.554 8.4-33.15 8.4-18.9 0-33.45-8.4a60.163 60.163 0 01-22.8-23.1q-8.255-14.7-8.25-33.9t8.25-34.049a59.924 59.924 0 0122.8-23.25q14.549-8.4 33.45-8.4 18.6 0 33.15 8.4a59.979 59.979 0 0122.8 23.25q8.247 14.851 8.25 34.049t-8.255 33.9z"/>
    <path d="M928.343 244.529a80.392 80.392 0 00-29.85-30q-18.9-10.947-42.6-10.95-24.006 0-43.051 10.95a80.014 80.014 0 00-30 30q-10.954 19.055-10.949 43.049 0 23.7 10.949 42.75a80.608 80.608 0 0029.7 30q18.745 10.957 42.45 10.951 21.9 0 39.151-9.6a72.467 72.467 0 0025.649-23.7v21.9a9.339 9.339 0 002.7 6.9 9.735 9.735 0 007.2 2.7 9.235 9.235 0 007.05-2.7 9.653 9.653 0 002.55-6.9v-72.3q.001-23.998-10.949-43.05zm-39.6 99.9a64.518 64.518 0 01-88.8-23.4 65.81 65.81 0 01-8.549-33.451q0-18.9 8.549-33.749a62.9 62.9 0 0123.25-23.4 63.843 63.843 0 0132.7-8.55 62.8 62.8 0 0132.849 8.7 63.658 63.658 0 0122.95 23.4q8.4 14.7 8.4 33.6a66.764 66.764 0 01-8.4 33.451 62.148 62.148 0 01-22.949 23.4z"/>
    <path d="M1134.592 238.079a65.752 65.752 0 00-26.851-25.95q-16.951-8.845-38.55-8.85a73.521 73.521 0 00-35.4 8.55 69.807 69.807 0 00-21 17.131v-13.681a10.07 10.07 0 00-2.551-7.2 9.231 9.231 0 00-7.05-2.7 9.29 9.29 0 00-9.9 9.9v144.6a9.339 9.339 0 002.7 6.9 9.736 9.736 0 007.2 2.7 9.235 9.235 0 007.05-2.7 9.653 9.653 0 002.551-6.9v-90.9a40.8 40.8 0 017.35-24 50.032 50.032 0 0119.95-16.5 64.788 64.788 0 0128.2-6q16.2 0 28.949 6.3a47.886 47.886 0 0120.25 18.9q7.5 12.6 7.5 32.1v80.1a9.208 9.208 0 002.851 6.75 9.559 9.559 0 007.05 2.85 9.085 9.085 0 006.9-2.85 9.48 9.48 0 002.7-6.75v-80.1q0-24.594-9.899-41.7z"/>
    <circle cx="1524.582" cy="256" r="256"/>
  </g>
  <g class="background-elements" fill="var(--color-background)">
    <path d="M1524.582 42.532l185 106.256v214.423l-185 106.257-185-106.257V148.788l185-106.256m0-11.532l-195 112v226l195 112 195-112V143l-195-112z" />
    <path d="M1524.582 45.142L1735.44 256l-210.858 210.858L1313.724 256l210.858-210.858m0-14.142l-225 225 225 225 225-225-225-225z" />
    <path d="M1524.582 51.011L1702.268 359H1346.9l177.682-307.989m0-20.011l-195 338h390l-195-338z" />
  </g>
</svg>
