<svg width="1652" height="439" viewBox="0 0 1652 439" fill="none" xmlns="http://www.w3.org/2000/svg">
<path fill-rule="evenodd" clip-rule="evenodd" d="M1492.49 226.178C1463.26 226.178 1439.5 249.934 1439.5 279.164C1439.5 308.395 1463.26 332.151 1492.49 332.151C1521.72 332.151 1545.48 308.395 1545.48 279.164C1545.48 249.934 1521.72 226.178 1492.49 226.178ZM1651.34 279.164C1651.34 366.964 1580.18 438.124 1492.38 438.124C1404.58 438.124 1333.42 366.964 1333.42 279.164C1333.42 191.365 1404.58 120.205 1492.38 120.205C1580.29 120.205 1651.34 191.365 1651.34 279.164Z" fill="#0E1214"/>
<path d="M1211.14 277.194V385.138C1211.14 414.368 1234.89 438.124 1264.12 438.124C1293.35 438.124 1317.11 414.368 1317.11 385.138V277.194C1317.11 190.489 1245.95 120.205 1158.15 120.205C1070.35 120.205 999.19 190.489 999.19 277.194V385.028C999.19 414.258 1022.95 438.015 1052.18 438.015C1081.41 438.015 1105.16 414.258 1105.16 385.028V277.084C1105.16 248.183 1128.92 224.755 1158.15 224.755C1187.38 224.864 1211.14 248.292 1211.14 277.194Z" fill="#0E1214"/>
<path d="M334.231 169.907C334.231 142.429 357.988 120.205 387.218 120.205C416.448 120.205 440.204 142.429 440.204 169.907C440.204 171.002 440.204 172.097 440.095 173.191H440.204V281.135C440.204 310.037 463.961 333.465 493.191 333.465C522.421 333.465 546.177 310.037 546.177 281.135V173.191H546.287C546.177 172.097 546.177 171.002 546.177 169.907C546.177 142.429 569.934 120.205 599.164 120.205C628.394 120.205 652.15 142.429 652.15 169.907C652.15 171.002 652.15 172.097 652.041 173.191H652.15V281.135C652.15 367.84 580.991 438.124 493.191 438.124C405.391 438.124 334.231 367.84 334.231 281.135V173.191H334.341C334.341 172.097 334.231 171.002 334.231 169.907Z" fill="#0E1214"/>
<path fill-rule="evenodd" clip-rule="evenodd" d="M261.101 159.726C232.856 135.97 201.437 127.54 165.638 123.708C130.168 119.986 112.98 100.718 107.068 66.0142C106.083 60.2119 104.879 54.1907 102.689 48.0601C95.2448 27.369 74.9917 11.0571 52.987 11.0571C17.7356 11.0571 -0.108976 44.8852 0.000500669 75.9765C0.109977 121.409 0.000500669 166.951 0.000500669 212.384C0.000500669 233.513 0.000500669 254.642 0.000500669 275.771C0.000500669 274.785 0.000500669 273.91 0.000500669 272.924C0.985787 346.273 43.6815 412.288 116.702 432.322C130.387 436.044 144.619 438.015 158.851 438.015C246.65 438.015 317.81 366.855 317.81 279.055C317.81 232.528 296.791 189.722 261.101 159.726ZM158.851 332.151C129.62 332.151 105.864 308.395 105.864 279.164C105.864 249.934 129.62 226.178 158.851 226.178C188.081 226.178 211.837 249.934 211.837 279.164C211.837 308.395 188.19 332.151 158.851 332.151Z" fill="#0E1214"/>
<path fill-rule="evenodd" clip-rule="evenodd" d="M981.017 237.782C974.448 213.479 962.297 191.474 945.985 173.191C913.47 136.845 864.315 115.497 810.562 121.081C736.776 128.744 677.22 188.299 669.557 262.086C663.974 315.948 685.212 364.994 721.668 397.508C749.803 422.688 786.916 437.905 827.531 438.015H827.641C850.302 438.015 870.993 423.892 877.89 402.325C884.349 382.072 878.876 362.695 866.943 349.448L956.823 296.571C977.076 284.748 987.148 260.663 981.017 237.782ZM774.545 280.04C774.545 279.712 774.545 279.493 774.545 279.164C774.545 249.934 798.301 226.178 827.531 226.178C837.275 226.178 846.361 228.805 854.134 233.403L774.545 280.04Z" fill="#0E1214"/>
<path d="M177.571 105.973C206.835 105.973 230.557 82.2502 230.557 52.9865C230.557 23.7229 206.835 0 177.571 0C148.307 0 124.584 23.7229 124.584 52.9865C124.584 82.2502 148.307 105.973 177.571 105.973Z" fill="#F58220"/>
</svg>
