<svg width="122" height="32" viewBox="0 0 122 32" fill="none" xmlns="http://www.w3.org/2000/svg">
  <path d="M25.4512 18.4558C26.7907 22.9209 31.5535 25.4512 36.0186 23.9628C38.8465 23.0698 40.7814 21.2837 41.6744 18.307C41.9721 17.1163 42.8651 17.2651 43.7581 17.2651C42.8651 23.814 37.0605 26.7907 32 26.0465C25.6 25.0047 22.6233 19.6465 23.5163 14.2884C24.4093 8.63256 29.3209 5.2093 35.1256 5.95349C40.3349 6.69767 43.7581 11.1628 43.7581 15.0326C37.6558 16.2233 31.5535 17.2651 25.4512 18.4558ZM41.5256 13.693C40.3349 9.37674 36.1674 7.14419 32 7.73953C27.6837 8.48372 24.4093 12.8 25.1535 16.6698C30.8093 15.6279 36.1674 14.586 41.5256 13.693ZM102.995 17.7116C104.781 23.3674 111.628 25.4512 116.242 21.8791C117.581 20.8372 118.474 19.4977 119.07 17.8605C119.367 16.8186 119.963 16.3721 121.153 16.6698C121.302 18.1581 120.558 19.3488 119.814 20.5395C117.135 24.8558 112.074 26.493 107.312 24.707C103.144 23.0698 100.614 19.2 100.763 15.0326C100.912 9.67442 105.377 5.50698 110.586 5.2093C115.2 5.06046 119.814 8.33488 120.856 12.6512C121.005 13.0977 121.153 13.3953 121.153 13.8419C121.153 13.9907 120.856 14.4372 120.707 14.4372C117.73 15.0326 114.605 15.4791 111.628 16.0744C108.8 16.6698 105.823 17.1163 102.995 17.7116ZM102.549 15.9256C108.056 14.8837 113.563 13.9907 119.07 12.9488C117.581 8.33488 112.967 6.10232 108.8 7.29302C104.781 8.33488 102.4 11.907 102.549 15.9256ZM1.78605 21.722C1.78605 25.1452 1.78605 28.8744 1.93488 32H0.148837V30.8093C0.148837 26.1953 0.148837 21.7302 0 17.1163C0 13.5442 1.1907 10.5674 3.86977 8.33488C6.99535 5.95349 10.4186 5.50698 14.1395 6.99535C18.307 8.78139 20.6884 12.9488 20.093 17.2651C19.4977 21.5814 16.3721 25.0046 12.2046 25.7488C8.63256 26.493 5.50698 25.4512 2.82791 22.7721C2.52306 22.4672 1.78605 21.722 1.78605 21.722ZM18.4558 16.3721C18.6047 11.907 14.4372 8.18605 10.1209 8.18605C5.2093 8.18605 1.63721 12.0558 1.78605 16.5209C1.93488 21.1349 5.35814 24.5581 10.1209 24.5581C15.0326 24.5581 18.4558 20.5395 18.4558 16.3721ZM47.1814 0.446512H48.9674C48.9674 3.57209 48.9674 6.69767 49.1163 10.1209C50.1581 9.22791 51.0512 8.18605 52.093 7.5907C56.8558 4.31628 63.8512 6.10232 66.3814 11.1628C68.3163 15.0326 68.0186 18.7535 65.1907 22.3256C62.8093 25.1535 59.8326 26.3442 56.2605 25.8977C51.7953 25.3023 48.9674 22.6233 47.6279 18.307C47.3302 17.5628 47.3302 16.6698 47.3302 15.7767C47.3302 11.1628 47.1814 6.54884 47.1814 1.78605V0.446512ZM65.6372 15.7767C65.786 11.3116 61.6186 7.5907 57.3023 7.5907C52.5395 7.73953 48.9674 11.3116 49.1163 15.9256C49.2651 20.5395 52.5395 23.9628 57.4512 24.1116C62.3628 24.1116 65.786 20.093 65.6372 15.7767ZM72.6326 9.67442C74.4186 7.73953 76.5023 6.54884 78.8837 5.95349C81.8605 5.35814 84.5395 5.95349 86.9209 7.5907C89.8977 9.82326 91.2372 12.8 91.0884 16.5209C90.7907 20.8372 87.2186 24.5581 83.0512 25.4512C78.2884 26.3442 74.2698 24.2605 72.186 20.3907C71.4419 19.2 70.9953 17.7116 70.9953 16.3721C70.8465 11.1628 70.8465 5.95349 70.8465 0.744186V0.297674H72.4837C72.6326 3.42326 72.6326 6.54884 72.6326 9.67442ZM89.3023 15.6279C89.3023 11.014 85.4325 7.44186 80.9674 7.44186C76.3535 7.44186 72.6326 11.1628 72.6326 15.6279C72.6326 20.3907 76.3535 23.814 80.9674 23.814C85.7302 23.9628 89.3023 20.2419 89.3023 15.6279ZM94.6605 0H96.4465V1.1907C96.4465 6.99535 96.5953 12.9488 96.5953 18.7535C96.5953 19.6465 96.7442 20.5395 97.0418 21.4326C97.4884 22.7721 98.3814 23.5163 99.7209 23.9628C99.5721 24.5581 99.4232 25.1535 99.2744 25.6C96 24.5581 94.9581 22.3256 94.9581 19.3488C94.8093 13.3953 94.8093 7.29302 94.6605 1.1907V0Z" fill="#000"/>
</svg>
